<svg width="715" height="816" xmlns="http://www.w3.org/2000/svg" xmlns:xlink="http://www.w3.org/1999/xlink" xml:space="preserve" overflow="hidden"><defs><clipPath id="clip0"><rect x="2012" y="774" width="715" height="816"/></clipPath></defs><g clip-path="url(#clip0)" transform="translate(-2012 -774)"><path d="M2127.63 867.227C2138.88 850.015 2386.81 877.061 2469.78 941.502 2552.75 1005.94 2566.1 1173.49 2625.43 1253.87 2558.94 1367.36 2485.28 1109.21 2402.31 1044.77 2319.34 980.331 2116.39 884.439 2127.63 867.227Z" fill="#FFFFFF" fill-rule="evenodd" fill-opacity="1"/><path d="M2376.1 1532.34C2352.14 1536.1 2313.84 1539.02 2374.33 1479.05 2434.83 1419.07 2577.24 1297.06 2595.17 1315.15 2613.11 1333.23 2578.6 1396.52 2518.1 1456.49 2457.61 1516.47 2400.06 1528.58 2376.1 1532.34Z" fill="#FFFFFF" fill-rule="evenodd" fill-opacity="1"/><path d="M2028.3 1384.73C2015.33 1360.13 1997.99 1320.3 2086.32 1373.88 2174.64 1427.46 2361.45 1556.82 2348.15 1578.75 2334.85 1600.67 2252.46 1575.02 2164.14 1521.44 2075.82 1467.86 2041.27 1409.32 2028.3 1384.73Z" fill="#FFFFFF" fill-rule="evenodd" fill-opacity="1"/><path d="M2558.95 1209.87C2609.32 1187.45 2690.88 1260.78 2711.24 1306.53 2731.6 1352.29 2731.49 1461.96 2681.12 1484.38 2630.75 1506.8 2549.19 1433.47 2528.83 1387.71 2508.47 1341.96 2508.58 1232.28 2558.95 1209.87Z" fill="#FFFFFF" fill-rule="evenodd" fill-opacity="1"/><path d="M2540 1246.03C2590.37 1223.61 2671.93 1296.95 2692.29 1342.7 2712.65 1388.45 2712.55 1498.13 2662.17 1520.55 2611.8 1542.96 2530.25 1469.63 2509.88 1423.88 2489.52 1378.13 2489.63 1268.45 2540 1246.03Z" fill="#FFFFFF" fill-rule="evenodd" fill-opacity="1"/><path d="M2213.74 782.236C2218.75 763.546 2498.64 839.761 2567.53 936.257 2636.41 1032.75 2621.47 1232.78 2627.06 1361.21 2429.03 1519.76 2606.4 1144.89 2537.52 1048.39 2468.63 951.898 2208.74 800.926 2213.74 782.236Z" fill="#FFFFFF" fill-rule="evenodd" fill-opacity="1"/><path d="M2018.67 1213.54C2018.01 1201.03 2035.51 1189.94 2057.74 1188.77 2079.98 1187.6 2098.54 1196.8 2099.2 1209.32 2099.85 1221.83 2082.36 1232.92 2060.12 1234.09 2037.89 1235.26 2019.33 1226.06 2018.67 1213.54Z" fill="#FFFFFF" fill-rule="evenodd" fill-opacity="1"/><path d="M2093 1466.49C2040.39 1368.77 2090.12 1192.04 2160.68 1148.86 2231.25 1105.68 2445.37 1122.8 2516.38 1207.4 2588.46 1293.3 2526.06 1431.97 2442.03 1512.52L2093 1466.49Z" fill="#FFFFFF" fill-rule="evenodd" fill-opacity="1"/><path d="M2093.38 1445.03C2021.85 1419.81 1992.81 1337.01 2028.5 1260.1 2052.56 1208.25 2101.42 1170.15 2155.3 1161.21Z" fill="#FFFFFF" fill-rule="evenodd" fill-opacity="1"/><path d="M2056.01 1230.08C2056.96 1195.92 2159.78 1122 2280.73 1122 2401.68 1122 2494 1176.56 2494 1230.08 2494 1283.61 2395.95 1327 2275 1327 2154.05 1327 2055.05 1264.25 2056.01 1230.08Z" fill="#FFFFFF" fill-rule="evenodd" fill-opacity="1"/><path d="M2597.29 1375.68C2600.82 1349 2618.1 1329.29 2635.89 1331.64 2653.67 1334 2665.22 1357.53 2661.69 1384.21 2658.16 1410.88 2640.88 1430.6 2623.1 1428.24 2605.31 1425.89 2593.76 1402.35 2597.29 1375.68Z" fill="#FAA7C4" fill-rule="evenodd" fill-opacity="1"/><path d="M2625.76 1373.44C2627.17 1362.77 2634.08 1354.88 2641.2 1355.83 2648.31 1356.77 2652.93 1366.18 2651.52 1376.85 2650.11 1387.52 2643.19 1395.41 2636.08 1394.47 2628.97 1393.52 2624.35 1384.11 2625.76 1373.44Z" fill="#FFFFFF" fill-rule="evenodd" fill-opacity="1"/></g></svg>